<svg width="22" height="19" viewBox="0 0 22 19" fill="none" xmlns="http://www.w3.org/2000/svg">
<path d="M11.375 10.25V15.5C11.375 15.5994 11.3355 15.6948 11.2651 15.7652C11.1948 15.8355 11.0994 15.875 11 15.875C10.9005 15.875 10.8051 15.8355 10.7348 15.7652C10.6645 15.6948 10.625 15.5994 10.625 15.5V10.25C10.625 10.1505 10.6645 10.0551 10.7348 9.98482C10.8051 9.9145 10.9005 9.87499 11 9.87499C11.0994 9.87499 11.1948 9.9145 11.2651 9.98482C11.3355 10.0551 11.375 10.1505 11.375 10.25ZM21.1147 8.14905L19.8125 17.8991C19.7764 18.1688 19.6438 18.4164 19.4392 18.5958C19.2345 18.7752 18.9718 18.8744 18.6997 18.875H3.30028C3.02812 18.8744 2.76539 18.7752 2.56077 18.5958C2.35616 18.4164 2.22353 18.1688 2.18747 17.8991L0.888094 8.14905C0.866885 7.9904 0.879774 7.82906 0.925897 7.67579C0.972021 7.52252 1.05032 7.38086 1.15556 7.26027C1.2608 7.13968 1.39056 7.04293 1.53618 6.97649C1.6818 6.91005 1.83991 6.87544 1.99997 6.87499H5.57934L10.7187 1.00343C10.7539 0.963523 10.7972 0.931566 10.8457 0.909676C10.8942 0.887786 10.9468 0.876465 11 0.876465C11.0532 0.876465 11.1058 0.887786 11.1543 0.909676C11.2027 0.931566 11.246 0.963523 11.2812 1.00343L16.4206 6.87499H20C20.1603 6.87504 20.3187 6.90935 20.4646 6.97562C20.6106 7.04188 20.7407 7.13858 20.8463 7.25921C20.9518 7.37985 21.0304 7.52165 21.0766 7.67512C21.1229 7.82858 21.1359 7.99017 21.1147 8.14905ZM6.57591 6.87499H15.424L11 1.81905L6.57591 6.87499ZM20.2812 7.75249C20.2463 7.7122 20.2031 7.67995 20.1546 7.65794C20.106 7.63593 20.0533 7.62469 20 7.62499H1.99997C1.94634 7.62453 1.89323 7.63559 1.84424 7.6574C1.79525 7.67922 1.7515 7.71129 1.71596 7.75146C1.68042 7.79162 1.6539 7.83894 1.6382 7.89022C1.62251 7.94151 1.61799 7.99556 1.62497 8.04874L2.92434 17.7987C2.93645 17.8894 2.98125 17.9724 3.05031 18.0323C3.11936 18.0922 3.20793 18.1249 3.29934 18.1241H18.6997C18.7911 18.1249 18.8796 18.0922 18.9487 18.0323C19.0178 17.9724 19.0625 17.8894 19.0747 17.7987L20.375 8.04968C20.3819 7.9963 20.3772 7.94205 20.361 7.89071C20.3448 7.83938 20.3176 7.7922 20.2812 7.75249ZM15.9875 9.87499C15.9385 9.87006 15.889 9.87484 15.8418 9.88904C15.7947 9.90324 15.7508 9.92659 15.7126 9.95776C15.6745 9.98892 15.6429 10.0273 15.6196 10.0707C15.5963 10.1141 15.5818 10.1616 15.5768 10.2106L15.0518 15.4606C15.0464 15.5099 15.0508 15.5598 15.0647 15.6074C15.0787 15.655 15.102 15.6993 15.1332 15.7379C15.1644 15.7764 15.2029 15.8084 15.2466 15.8319C15.2902 15.8554 15.3381 15.8701 15.3875 15.875H15.4259C15.5192 15.8755 15.6093 15.8411 15.6786 15.7787C15.748 15.7163 15.7916 15.6303 15.8009 15.5375L16.3259 10.2875C16.3311 10.2381 16.3264 10.1882 16.3121 10.1407C16.2979 10.0931 16.2743 10.0489 16.2429 10.0105C16.2114 9.97217 16.1726 9.94043 16.1288 9.91716C16.0849 9.89389 16.0369 9.87956 15.9875 9.87499ZM6.01247 9.87499C5.96347 9.87991 5.91592 9.89444 5.87253 9.91774C5.82915 9.94104 5.79078 9.97266 5.75961 10.0108C5.72845 10.0489 5.7051 10.0928 5.69089 10.14C5.67669 10.1871 5.67192 10.2366 5.67684 10.2856L6.20184 15.5356C6.21117 15.6284 6.25476 15.7144 6.3241 15.7769C6.39344 15.8393 6.48356 15.8736 6.57684 15.8731H6.61528C6.66428 15.8682 6.71183 15.8537 6.75522 15.8304C6.7986 15.8071 6.83697 15.7754 6.86814 15.7373C6.8993 15.6992 6.92265 15.6553 6.93686 15.6081C6.95106 15.561 6.95583 15.5115 6.95091 15.4625L6.42591 10.2125C6.42123 10.1631 6.40678 10.1151 6.3834 10.0713C6.36002 10.0275 6.32818 9.98874 6.28972 9.95734C6.25126 9.92594 6.20694 9.9025 6.15935 9.88836C6.11176 9.87422 6.06183 9.86968 6.01247 9.87499Z" fill="white"/>
</svg>
