<svg width="46" height="46" viewBox="0 0 46 46" fill="none" xmlns="http://www.w3.org/2000/svg">
<path d="M23.719 21.5626V31.6251C23.719 31.8157 23.6432 31.9985 23.5084 32.1333C23.3736 32.2681 23.1908 32.3439 23.0002 32.3439C22.8096 32.3439 22.6268 32.2681 22.492 32.1333C22.3572 31.9985 22.2815 31.8157 22.2815 31.6251V21.5626C22.2815 21.372 22.3572 21.1892 22.492 21.0544C22.6268 20.9196 22.8096 20.8439 23.0002 20.8439C23.1908 20.8439 23.3736 20.9196 23.5084 21.0544C23.6432 21.1892 23.719 21.372 23.719 21.5626ZM42.3867 17.5358L39.8908 36.2233C39.8217 36.7403 39.5675 37.2148 39.1753 37.5587C38.7831 37.9027 38.2796 38.0928 37.7579 38.0939H8.24247C7.72083 38.0928 7.21726 37.9027 6.82508 37.5587C6.4329 37.2148 6.1787 36.7403 6.10958 36.2233L3.61911 17.5358C3.57846 17.2317 3.60316 16.9225 3.69157 16.6287C3.77997 16.335 3.93004 16.0634 4.13175 15.8323C4.33347 15.6012 4.58218 15.4157 4.86127 15.2884C5.14037 15.161 5.44343 15.0947 5.7502 15.0938H12.6107L22.4611 3.84002C22.5286 3.76354 22.6115 3.70229 22.7045 3.66033C22.7974 3.61838 22.8982 3.59668 23.0002 3.59668C23.1022 3.59668 23.203 3.61838 23.2959 3.66033C23.3889 3.70229 23.4718 3.76354 23.5393 3.84002L33.3897 15.0938H40.2502C40.5574 15.094 40.8611 15.1597 41.1408 15.2867C41.4206 15.4137 41.67 15.5991 41.8723 15.8303C42.0746 16.0615 42.2251 16.3333 42.3138 16.6274C42.4026 16.9216 42.4274 17.2313 42.3867 17.5358ZM14.5208 15.0938H31.4797L23.0002 5.4033L14.5208 15.0938ZM40.7893 16.7757C40.7224 16.6985 40.6395 16.6367 40.5465 16.5945C40.4534 16.5523 40.3524 16.5308 40.2502 16.5314H5.7502C5.64741 16.5305 5.54563 16.5517 5.45172 16.5935C5.35782 16.6353 5.27398 16.6968 5.20585 16.7737C5.13773 16.8507 5.08691 16.9414 5.05682 17.0397C5.02674 17.138 5.01809 17.2416 5.03145 17.3435L7.52192 36.031C7.54513 36.2047 7.63099 36.3639 7.76335 36.4788C7.89571 36.5936 8.06546 36.6561 8.24067 36.6546H37.7579C37.9332 36.6561 38.1029 36.5936 38.2353 36.4788C38.3676 36.3639 38.4535 36.2047 38.4767 36.031L40.969 17.3453C40.9823 17.243 40.9732 17.139 40.9421 17.0407C40.9111 16.9423 40.8589 16.8518 40.7893 16.7757ZM32.5596 20.8439C32.4657 20.8344 32.3708 20.8436 32.2804 20.8708C32.19 20.898 32.1059 20.9428 32.0328 21.0025C31.9597 21.0622 31.8991 21.1358 31.8545 21.2189C31.8098 21.3021 31.782 21.3932 31.7725 21.4871L30.7663 31.5496C30.7559 31.6441 30.7642 31.7397 30.791 31.8309C30.8178 31.9221 30.8623 32.0071 30.9222 32.081C30.982 32.1549 31.0559 32.2161 31.1395 32.2613C31.2232 32.3064 31.315 32.3344 31.4096 32.3439H31.4833C31.6621 32.3447 31.8348 32.279 31.9677 32.1594C32.1006 32.0397 32.1841 31.8749 32.202 31.697L33.2082 21.6345C33.2182 21.5399 33.2092 21.4442 33.1819 21.3531C33.1546 21.262 33.1094 21.1772 33.0491 21.1037C32.9887 21.0301 32.9144 20.9693 32.8304 20.9247C32.7463 20.8801 32.6543 20.8526 32.5596 20.8439ZM13.4408 20.8439C13.3469 20.8533 13.2558 20.8811 13.1726 20.9258C13.0895 20.9704 13.0159 21.0311 12.9562 21.1041C12.8965 21.1772 12.8517 21.2614 12.8245 21.3517C12.7973 21.4421 12.7881 21.537 12.7975 21.6309L13.8038 31.6934C13.8217 31.8713 13.9052 32.0361 14.0381 32.1558C14.171 32.2754 14.3437 32.3412 14.5225 32.3403H14.5962C14.6901 32.3308 14.7813 32.303 14.8644 32.2583C14.9476 32.2137 15.0211 32.1531 15.0809 32.08C15.1406 32.0069 15.1854 31.9228 15.2126 31.8324C15.2398 31.742 15.2489 31.6471 15.2395 31.5532L14.2333 21.4907C14.2243 21.396 14.1966 21.304 14.1518 21.22C14.107 21.1361 14.0459 21.0619 13.9722 21.0017C13.8985 20.9415 13.8136 20.8966 13.7224 20.8695C13.6311 20.8424 13.5354 20.8337 13.4408 20.8439Z" fill="white"/>
</svg>
