<svg width="20" height="20" viewBox="0 0 20 20" fill="none" xmlns="http://www.w3.org/2000/svg">
<path d="M17.0203 2.97501C15.6313 1.58661 13.8618 0.641269 11.9355 0.258537C10.0092 -0.124195 8.01267 0.0728682 6.19838 0.824807C4.38409 1.57675 2.83352 2.84979 1.74274 4.48296C0.651951 6.11613 0.0699448 8.03607 0.0703127 10C0.0703123 12.6341 1.11635 15.1603 2.97844 17.0233C4.84053 18.8864 7.36625 19.9337 10.0003 19.935C11.3038 19.9356 12.5948 19.6808 13.8003 19.185C15.002 18.6778 16.0951 17.9445 17.0203 17.025C17.943 16.1025 18.6748 15.0073 19.1742 13.802C19.6735 12.5966 19.9305 11.3047 19.9305 10C19.9305 8.69532 19.6735 7.4034 19.1742 6.19804C18.6748 4.99268 17.943 3.89749 17.0203 2.97501ZM16.3203 16.315C14.8904 17.7511 13.0141 18.6575 11.0003 18.885V12.325H12.8803C13.1455 12.325 13.3999 12.2197 13.5874 12.0321C13.775 11.8446 13.8803 11.5902 13.8803 11.325C13.8803 11.0598 13.775 10.8054 13.5874 10.6179C13.3999 10.4304 13.1455 10.325 12.8803 10.325H11.0003V7.58501C11.0003 7.31979 11.1057 7.06544 11.2932 6.8779C11.4807 6.69037 11.7351 6.58501 12.0003 6.58501H13.2003C13.4655 6.58501 13.7199 6.47965 13.9074 6.29212C14.095 6.10458 14.2003 5.85023 14.2003 5.58501C14.2003 5.31979 14.095 5.06544 13.9074 4.8779C13.7199 4.69037 13.4655 4.58501 13.2003 4.58501H11.5003C10.8373 4.58501 10.2014 4.8484 9.73255 5.31724C9.26371 5.78608 9.00031 6.42197 9.00031 7.08501V10.325H7.13031C6.8651 10.325 6.61074 10.4304 6.42321 10.6179C6.23567 10.8054 6.13031 11.0598 6.13031 11.325C6.13031 11.5902 6.23567 11.8446 6.42321 12.0321C6.61074 12.2197 6.8651 12.325 7.13031 12.325H9.00031V18.885C7.1432 18.6731 5.39959 17.8832 4.01576 16.6267C2.63193 15.3702 1.67783 13.7107 1.28821 11.8826C0.8986 10.0545 1.09317 8.1502 1.84444 6.43867C2.59572 4.72714 3.86572 3.29489 5.47506 2.34423C7.08441 1.39357 8.95175 0.972546 10.8133 1.14063C12.6749 1.30871 14.4366 2.0574 15.8497 3.28095C17.2627 4.5045 18.2556 6.14107 18.6882 7.95949C19.1207 9.7779 18.9711 11.6863 18.2603 13.415C17.8076 14.4982 17.1487 15.4832 16.3203 16.315Z" fill="white"/>
</svg>
