<svg width="29" height="32" viewBox="0 0 29 32" fill="none" xmlns="http://www.w3.org/2000/svg">
<path d="M14.5 17.5C17.1924 17.5 19.375 15.4853 19.375 13C19.375 10.5147 17.1924 8.5 14.5 8.5C11.8076 8.5 9.625 10.5147 9.625 13C9.625 15.4853 11.8076 17.5 14.5 17.5Z" stroke="white" stroke-width="2" stroke-linecap="round" stroke-linejoin="round"/>
<path d="M14.5 1C11.0522 1 7.74558 2.26428 5.30761 4.51472C2.86964 6.76516 1.5 9.8174 1.5 13C1.5 15.838 2.15325 17.695 3.9375 19.75L14.5 31L25.0625 19.75C26.8468 17.695 27.5 15.838 27.5 13C27.5 9.8174 26.1304 6.76516 23.6924 4.51472C21.2544 2.26428 17.9478 1 14.5 1Z" stroke="white" stroke-width="2" stroke-linecap="round" stroke-linejoin="round"/>
</svg>
