<svg width="24" height="24" viewBox="0 0 24 24" fill="none" xmlns="http://www.w3.org/2000/svg">
<path d="M18.0659 8.20727L18.0658 8.20726C17.8834 10.1286 17.0992 14.7575 16.7035 16.8796L16.7035 16.8797C16.5252 17.835 16.1105 18.4449 15.4533 18.5207L15.4461 18.5215L15.4389 18.5222C14.9462 18.5646 14.5341 18.3976 14.1868 18.1947C14.0147 18.0942 13.8484 17.9788 13.6926 17.8682C13.66 17.8451 13.6279 17.8222 13.5961 17.7996C13.4713 17.7106 13.3514 17.6251 13.2248 17.5415C13.2247 17.5414 13.2245 17.5413 13.2244 17.5412L13.5 17.124C12.969 16.774 12.5533 16.4908 12.1415 16.2102C11.7344 15.9329 11.3311 15.6581 10.824 15.324C9.79619 14.6492 10.2325 14.2348 10.8117 13.6846C10.902 13.5989 10.9958 13.5098 11.088 13.416L18.0659 8.20727ZM18.0659 8.20727L18.0667 8.19562C18.0749 8.08092 18.0706 7.95882 18.0677 7.87868L18.0677 7.87815L18.0672 7.86589C18.0659 7.82704 18.0649 7.79927 18.0646 7.77632C18.0645 7.77227 18.0645 7.76889 18.0645 7.76612L18.0732 7.71431L18.0641 7.64198C18.0449 7.48827 17.9793 7.20499 17.7156 6.99216C17.563 6.86665 17.3901 6.80707 17.2653 6.77696C17.135 6.7455 17.0141 6.736 16.932 6.736C16.6094 6.736 16.2528 6.82441 15.6035 7.05998C14.9455 7.29867 13.9297 7.7113 12.2645 8.40614C11.0953 8.88832 8.764 9.89775 5.26645 11.4189C4.97138 11.5386 4.71315 11.6673 4.51676 11.8121C4.33338 11.9473 4.11092 12.1649 4.07515 12.484C4.04792 12.724 4.11621 12.943 4.2576 13.1197C4.3844 13.2781 4.55247 13.3809 4.69833 13.4524C4.92397 13.5631 5.22555 13.6563 5.51343 13.7452C5.58121 13.7661 5.64823 13.7868 5.71333 13.8075M18.0659 8.20727L5.71333 13.8075M11.9434 11.9368C11.2247 12.4174 10.3452 13.0085 9.30374 13.7104C8.78733 14.059 8.24965 14.2923 7.71325 14.2758M11.9434 11.9368L7.71238 14.2758C7.71267 14.2758 7.71296 14.2758 7.71325 14.2758M11.9434 11.9368C11.666 12.1958 11.4038 12.4389 11.1943 12.6332C10.9484 12.8611 10.775 13.0219 10.7344 13.0624L10.7314 13.0655C10.6525 13.1458 10.5714 13.2233 10.4871 13.3033L10.4665 13.323C10.3905 13.3951 10.3108 13.4709 10.2365 13.5456C10.0823 13.7007 9.90102 13.8998 9.79652 14.1367C9.67687 14.408 9.66304 14.7176 9.82497 15.0267C9.96784 15.2994 10.2263 15.5297 10.5493 15.7418L11.9434 11.9368ZM7.71325 14.2758C7.43904 14.268 7.0824 14.196 6.74372 14.1109C6.39545 14.0235 6.02745 13.9121 5.71333 13.8075M7.71325 14.2758L5.71333 13.8075M0.5 12C0.5 5.65214 5.65214 0.5 12 0.5C18.3479 0.5 23.5 5.65214 23.5 12C23.5 18.3479 18.3479 23.5 12 23.5C5.65214 23.5 0.5 18.3479 0.5 12Z" stroke="white"/>
</svg>
