<svg width="96" height="36" viewBox="0 0 96 36" fill="none" xmlns="http://www.w3.org/2000/svg">
<g clip-path="url(#clip0_1_262)">
<path d="M4.04316 11.007C4.04316 9.467 3.83101 8.31833 3.40673 7.57359C2.98245 6.82885 2.14637 6.46279 0.886 6.46279H0V5.55396H4.04316C5.15378 5.55396 5.97738 5.6928 6.53893 5.98313C7.088 6.27345 7.48733 6.79098 7.72442 7.54834C7.96152 8.30571 8.08631 9.45438 8.08631 11.007V19.1865H21.5635V5.55396H25.6067V30.0925C25.6067 31.6325 25.8188 32.7812 26.2306 33.5259C26.6424 34.2706 27.491 34.6367 28.7513 34.6367H29.6498V35.5455H25.6067C24.496 35.5455 23.6724 35.4067 23.1109 35.1164C22.5493 34.826 22.1625 34.3085 21.9129 33.5512C21.6758 32.7938 21.551 31.6451 21.551 30.0925V21.0042H8.08631V35.5455H4.04316V11.007Z" fill="#80350b"/>
<path d="M34.9533 19.641C34.9533 18.101 34.7412 16.9524 34.3294 16.2076C33.9051 15.4629 33.069 15.0968 31.8086 15.0968H30.9102V14.188H34.9533C36.0639 14.188 36.8875 14.3268 37.4491 14.6172C37.9982 14.9075 38.3975 15.425 38.6346 16.1824C38.8717 16.9397 38.9965 18.0884 38.9965 19.641V35.5456H34.9533V19.641Z" fill="#80350b"/>
<path d="M48.2932 11.007C48.2932 9.467 48.081 8.31833 47.6692 7.57359C47.2449 6.82885 46.4088 6.46279 45.1485 6.46279H44.25V5.55396H48.2932C49.4038 5.55396 50.2274 5.6928 50.7889 5.98313C51.338 6.27345 51.7373 6.79098 51.9744 7.54834C52.2115 8.30571 52.3363 9.45438 52.3363 11.007V19.1865H65.8135V5.55396H69.8567V30.0925C69.8567 31.6325 70.0688 32.7812 70.4806 33.5259C70.8924 34.2706 71.741 34.6367 73.0013 34.6367H73.8998V35.5455H69.8567C68.746 35.5455 67.9224 35.4067 67.3609 35.1164C66.8118 34.826 66.4125 34.3085 66.1754 33.5512C65.9383 32.7938 65.8135 31.6451 65.8135 30.0925V21.0042H52.3363V35.5455H48.2932V11.007Z" fill="#80350b"/>
<path d="M80.8129 34.523C79.3155 33.5384 78.1799 32.2004 77.3937 30.4964C76.62 28.8049 76.2207 26.9241 76.2207 24.8666C76.2207 22.8091 76.6075 20.9283 77.3937 19.2369C78.1674 17.5455 79.3155 16.1948 80.8129 15.2103C82.3104 14.2257 84.0824 13.7334 86.1165 13.7334C88.1505 13.7334 89.9225 14.2257 91.42 15.2103C92.9174 16.1948 94.053 17.5328 94.8392 19.2369C95.6129 20.9283 96.0122 22.8091 96.0122 24.8666C96.0122 26.9241 95.6254 28.8049 94.8392 30.4964C94.0655 32.1878 92.9174 33.5384 91.42 34.523C89.9225 35.5076 88.1505 35.9999 86.1165 35.9999C84.0824 35.9999 82.3104 35.5076 80.8129 34.523ZM89.0615 32.9578C89.91 32.1373 90.5714 31.0139 91.0331 29.6002C91.4948 28.1738 91.7319 26.5959 91.7319 24.8793C91.7319 23.1626 91.4948 21.5721 91.0331 20.1584C90.5714 18.732 89.91 17.6086 89.0615 16.8007C88.2129 15.9802 87.2271 15.5763 86.1165 15.5763C85.0058 15.5763 84.0325 15.9802 83.1714 16.8007C82.3229 17.6212 81.6615 18.7446 81.1998 20.1584C80.7381 21.5847 80.501 23.1626 80.501 24.8793C80.501 26.5959 80.7381 28.1864 81.1998 29.6002C81.6615 31.0265 82.3229 32.1499 83.1714 32.9578C84.02 33.7783 85.0058 34.1822 86.1165 34.1822C87.2271 34.1822 88.2004 33.7783 89.0615 32.9578Z" fill="#80350b"/>
<path d="M41.1807 8.59596C41.1682 8.04056 41.0185 7.52303 40.7689 7.03074C40.3946 6.286 39.833 5.68011 39.2091 5.13733C38.6725 4.67029 38.086 4.26637 37.5119 3.83719C37.2624 3.66048 37.0253 3.48376 36.8131 3.26917C36.6634 3.1177 36.6509 2.97885 36.7382 2.78951C36.7882 2.6759 36.8755 2.58754 36.9629 2.51181C37.1126 2.38558 37.2624 2.25935 37.4121 2.1205C37.9612 1.62822 37.8613 0.668891 37.0502 0.378568C36.7882 0.277587 36.5136 0.239719 36.2266 0.227096C35.5902 0.20185 34.9538 0.176605 34.3298 0.290209C34.0303 0.3407 33.7558 0.454305 33.5437 0.681514C33.2317 1.02233 33.1443 1.69133 33.631 2.13313C33.8057 2.2846 33.9929 2.42345 34.1551 2.58754C34.3922 2.81475 34.492 3.07983 34.1551 3.37015C33.8681 3.60999 33.5686 3.83719 33.2691 4.05178C32.5578 4.55669 31.8465 5.08684 31.2475 5.7306C30.5487 6.47534 30.0246 7.29582 29.8998 8.34351C29.8 9.20185 30.0745 9.92135 30.7359 10.4767C31.2725 10.9185 31.9089 11.1457 32.5703 11.3098C33.5437 11.5497 34.5295 11.6002 35.5278 11.6128C36.4388 11.6128 37.3497 11.5623 38.2607 11.3603C38.9096 11.2215 39.546 11.0195 40.1075 10.6282C40.8188 10.1359 41.1932 9.46693 41.1682 8.58334L41.1807 8.59596ZM40.7315 9.07562C40.6067 9.69414 40.2074 10.1107 39.6833 10.4136C39.1591 10.7166 38.5851 10.8807 37.9986 10.9817C37.1875 11.1331 36.3639 11.1836 35.5028 11.1836C34.5919 11.1836 33.656 11.1205 32.7325 10.9059C32.1335 10.7671 31.5595 10.5651 31.0728 10.1864C30.4614 9.71938 30.2367 9.08825 30.3366 8.33088C30.4489 7.44729 30.8981 6.74042 31.4722 6.10928C32.0711 5.4529 32.7949 4.92275 33.5187 4.40522C33.8307 4.17801 34.1426 3.96342 34.4297 3.71097C34.4796 3.6731 34.517 3.62261 34.5669 3.58474C34.9413 3.21868 34.8415 2.73902 34.6044 2.43607C34.4796 2.27198 34.3049 2.14575 34.1551 2.01952C34.0678 1.94379 33.9679 1.86805 33.8931 1.77969C33.631 1.46412 33.7184 1.04757 34.0802 0.858232C34.3673 0.719382 34.6668 0.681514 34.9787 0.668891C35.4529 0.656268 35.9396 0.643646 36.4138 0.694136C36.6384 0.719382 36.863 0.75725 37.0627 0.870855C37.3871 1.04757 37.462 1.46412 37.2374 1.75445C37.1251 1.90592 36.9753 2.0069 36.8381 2.1205C36.601 2.32247 36.3764 2.52443 36.314 2.85262C36.264 3.09245 36.314 3.30704 36.4637 3.49638C36.7133 3.79933 37.0377 4.01391 37.3372 4.24112C37.9362 4.67029 38.5352 5.09947 39.0843 5.59175C39.6957 6.13453 40.2323 6.74042 40.5443 7.52303C40.744 8.02794 40.8563 8.55809 40.744 9.10087L40.7315 9.07562Z" fill="#80350b" stroke="#80350b" stroke-width="0.35" stroke-miterlimit="10"/>
<path d="M32.1338 8.59596C32.1338 7.88909 32.3958 7.27057 32.7827 6.70255C33.1446 6.14715 33.5938 5.68011 34.068 5.22569C34.1678 5.13733 34.2926 5.13733 34.38 5.22569C34.4673 5.31405 34.4673 5.44028 34.355 5.54126C34.0181 5.88207 33.6812 6.21027 33.3817 6.58895C33.0073 7.08123 32.6953 7.61139 32.583 8.24252C32.5581 8.394 32.5456 8.54547 32.5456 8.69694C32.5456 8.87366 32.4832 8.9494 32.3459 8.9494C32.2087 8.9494 32.1338 8.86104 32.1338 8.70956C32.1338 8.6717 32.1338 8.64645 32.1338 8.60858V8.59596Z" fill="#80350b" stroke="#80350b" stroke-width="0.35" stroke-miterlimit="10"/>
<path d="M33.9053 9.66877C33.9053 9.11337 33.9552 8.63371 34.055 8.14142C34.08 8.05306 34.1174 7.9647 34.2172 7.93946C34.2921 7.92683 34.367 7.93946 34.4294 8.00257C34.4918 8.06568 34.4793 8.15404 34.4668 8.22978C34.342 8.7978 34.3046 9.36582 34.3296 9.93385C34.3296 9.99696 34.3296 10.0475 34.342 10.1106C34.342 10.2368 34.2672 10.3504 34.1549 10.363C34.0425 10.3756 33.9427 10.2873 33.9302 10.1611C33.9053 9.98434 33.9053 9.795 33.9053 9.66877Z" fill="#80350b" stroke="#80350b" stroke-width="0.35" stroke-miterlimit="10"/>
<path d="M37.2998 5.50342C37.7491 5.93259 38.1359 6.41225 38.4604 6.95503C38.5477 7.1065 38.4978 7.25798 38.348 7.29584C38.2607 7.32109 38.1733 7.29584 38.1234 7.20749C37.8364 6.70258 37.462 6.2734 37.0752 5.85685V5.83161C37.1875 5.75587 37.2624 5.64227 37.2998 5.50342Z" fill="#80350b" stroke="#80350b" stroke-width="0.35" stroke-miterlimit="10"/>
<path d="M36.7506 5.54134C36.501 5.30151 36.2514 5.06168 36.0018 4.82185C35.8895 4.70825 35.877 4.58202 35.9769 4.49366C36.0642 4.4053 36.189 4.41792 36.3013 4.5189C36.5384 4.74611 36.7755 4.97332 37.0126 5.21315C37.0376 5.2384 37.0251 5.26364 37.0126 5.27627C36.9128 5.33938 36.8629 5.42774 36.813 5.52872C36.813 5.54134 36.788 5.55397 36.7755 5.54134H36.7506Z" fill="#80350b" stroke="#80350b" stroke-width="0.35" stroke-miterlimit="10"/>
<path d="M38.5352 8.62119C38.5352 8.38136 38.4853 8.15415 38.4354 7.92694C38.398 7.76285 38.5227 7.63662 38.685 7.67449C38.7723 7.68711 38.8222 7.75022 38.8347 7.83858C38.9221 8.1289 38.9595 8.41923 38.947 8.72217C38.947 8.88627 38.8597 8.962 38.7224 8.962C38.5976 8.962 38.5352 8.87365 38.5352 8.70955C38.5352 8.6843 38.5352 8.65906 38.5352 8.63381V8.62119Z" fill="#80350b" stroke="#80350b" stroke-width="0.35" stroke-miterlimit="10"/>
<path d="M36.751 5.54133C36.8009 5.40248 36.9007 5.31412 37.0006 5.21313C37.1004 5.30149 37.2127 5.40248 37.3 5.50346C37.325 5.6928 37.2127 5.78116 37.0754 5.85689C36.9631 5.74329 36.8633 5.64231 36.751 5.5287V5.54133Z" fill="#80350b" stroke="#80350b" stroke-width="0.35" stroke-miterlimit="10"/>
</g>
<defs>
<clipPath id="clip0_1_262">
<rect width="96" height="36" fill="#80350b"/>
</clipPath>
</defs>
</svg>
