<svg width="120" height="250" viewBox="0 0 142 194" fill="none" xmlns="http://www.w3.org/2000/svg">
<rect x="129.5" y="61.5" width="5" height="21" stroke="#C4B399"/>
<rect x="113.5" y="61.5" width="15" height="21" stroke="#C4B399"/>
<rect x="129.5" y="103.5" width="5" height="21" stroke="#C4B399"/>
<rect x="113.5" y="103.5" width="15" height="21" stroke="#C4B399"/>
<rect x="60.5" y="13.5" width="5" height="21" transform="rotate(-90 60.5 13.5)" stroke="#C4B399"/>
<rect x="60.5" y="29.5" width="15" height="21" transform="rotate(-90 60.5 29.5)" stroke="#C4B399"/>
<rect x="12.5" y="82.5" width="5" height="21" transform="rotate(180 12.5 82.5)" stroke="#C4B399"/>
<rect x="28.5" y="82.5" width="15" height="21" transform="rotate(180 28.5 82.5)" stroke="#C4B399"/>
<rect x="12.5" y="124.5" width="5" height="21" transform="rotate(180 12.5 124.5)" stroke="#C4B399"/>
<rect x="28.5" y="124.5" width="15" height="21" transform="rotate(180 28.5 124.5)" stroke="#C4B399"/>
<rect x="81.5" y="173.5" width="5" height="21" transform="rotate(90 81.5 173.5)" stroke="#C4B399"/>
<rect x="81.5" y="157.5" width="15" height="21" transform="rotate(90 81.5 157.5)" stroke="#C4B399"/>
<rect x="45.5" y="46.5" width="50" height="94" stroke="#C4B399"/>
</svg>
